<svg width="64" height="64" viewBox="0 0 64 64" fill="none" xmlns="http://www.w3.org/2000/svg">
<rect width="64" height="64" rx="16" fill="#FDE901"/>
<path d="M32 52C43.0457 52 52 43.0457 52 32C52 20.9543 43.0457 12 32 12C20.9543 12 12 20.9543 12 32C12 43.0457 20.9543 52 32 52Z" fill="white"/>
<mask id="mask0_15_59" style="mask-type:alpha" maskUnits="userSpaceOnUse" x="12" y="12" width="40" height="40">
<path d="M32 52C43.0457 52 52 43.0457 52 32C52 20.9543 43.0457 12 32 12C20.9543 12 12 20.9543 12 32C12 43.0457 20.9543 52 32 52Z" fill="#333333"/>
</mask>
<g mask="url(#mask0_15_59)">
<path d="M30.7336 20.8666C30.4002 20.8666 30.0669 21.1332 30.0669 21.5332V31.6666C30.0669 31.9999 29.8669 32.3332 29.5336 32.3999C29.1336 32.4666 28.7336 32.1332 28.7336 31.7332V21.5332C28.7336 21.1999 28.4669 20.8666 28.0669 20.8666H28.0002C27.6669 20.8666 27.3336 21.1332 27.3336 21.5332V31.6666C27.3336 31.9999 27.1336 32.3332 26.8002 32.3999C26.4002 32.4666 26.0002 32.1332 26.0002 31.7332V21.5332C26.0002 21.1999 25.7336 20.8666 25.3336 20.8666C25.0002 20.8666 24.6669 21.1332 24.6669 21.5332V31.7332C24.6669 32.0666 24.4669 32.3999 24.1336 32.4666C23.7336 32.5332 23.3336 32.1999 23.3336 31.7999V21.5332C23.3336 21.1999 23.0669 20.8666 22.6669 20.8666C22.3336 20.8666 22.0002 21.1332 22.0002 21.4666C21.9336 24.2666 21.6002 35.4666 22.0669 36.2666C22.9336 37.7999 24.0669 37.8666 24.8669 39.5332C25.6669 41.1999 25.8669 44.3999 25.6002 47.9999C25.1336 54.9332 23.2669 62.9332 23.9336 64.4666C24.8002 66.3999 26.2002 66.4666 26.6002 66.4666C27.0002 66.4666 28.4002 66.3332 29.2669 64.4666C30.0002 62.9332 28.1336 54.9332 27.6002 47.9999C27.3336 44.3999 27.5336 41.1332 28.3336 39.5332C29.1336 37.8666 30.3336 37.7999 31.1336 36.2666C31.5336 35.4666 31.2669 24.2666 31.2002 21.4666C31.3336 21.1332 31.0669 20.8666 30.7336 20.8666Z" fill="#211F21"/>
<path d="M41.3335 20.0666C41.3335 19.3999 40.5335 19.1333 40.1335 19.5333C39.1335 20.5999 37.7335 22.4666 36.7335 25.5333C35.5335 29.3333 35.2001 40.1999 36.0001 42.1999C36.7335 43.9999 37.3335 43.3333 37.8668 44.1333C38.6668 45.4666 38.4001 46.9999 38.1335 50.5999C37.6668 57.5333 35.8668 62.9999 36.5335 64.5333C37.4001 66.4666 38.8001 66.5333 39.2001 66.5333C39.6001 66.5333 41.0001 66.3999 41.8668 64.5333C42.6001 62.9999 40.5335 46.3333 40.8001 42.3333C41.0668 40.5999 41.4668 24.8666 41.3335 20.0666Z" fill="#211F21"/>
</g>
</svg>
